<?xml version="1.0" standalone="no"?>
<!DOCTYPE svg PUBLIC "-//W3C//DTD SVG 20010904//EN"
 "http://www.w3.org/TR/2001/REC-SVG-20010904/DTD/svg10.dtd">
<svg version="1.0" xmlns="http://www.w3.org/2000/svg"
 width="784.000000pt" height="784.000000pt" viewBox="0 0 784.000000 784.000000"
 preserveAspectRatio="xMidYMid meet">
<metadata>
Created by potrace 1.14, written by Peter Selinger 2001-2017
</metadata>
<g transform="translate(0.000000,784.000000) scale(0.100000,-0.100000)"
fill="#000000" stroke="none">
<path d="M3079 7818 c-6 -21 -5 -38 1 -38 5 0 8 9 7 20 -1 17 -5 26 -8 18z"/>
<path d="M3840 7748 c-7 -35 -15 -71 -17 -81 -2 -11 -15 -69 -29 -130 -14 -62
-27 -121 -28 -132 -3 -18 -9 -49 -21 -100 -16 -68 -37 -164 -41 -185 -3 -13
-12 -56 -20 -95 -9 -38 -18 -81 -20 -94 -3 -12 -12 -53 -20 -90 -9 -36 -18
-77 -20 -91 -2 -14 -7 -36 -11 -50 -3 -14 -7 -32 -8 -40 -1 -8 -11 -55 -23
-105 -12 -49 -24 -103 -26 -120 -9 -48 -15 -75 -20 -93 -3 -9 -7 -28 -10 -42
-7 -37 -14 -67 -32 -150 -9 -41 -17 -80 -18 -87 -4 -27 -14 -22 -20 9 -8 45
-11 59 -36 173 -12 55 -24 109 -26 120 -2 11 -6 31 -9 45 -3 14 -10 43 -14 65
-5 22 -21 94 -36 160 -15 66 -28 130 -28 143 -1 12 -4 22 -8 22 -4 0 -6 8 -4
18 1 9 -2 28 -7 41 -5 13 -11 40 -14 60 -3 20 -7 43 -10 51 -3 8 -8 26 -10 40
-3 14 -21 99 -41 190 -19 91 -39 183 -44 205 -5 22 -11 51 -14 65 -11 47 -25
115 -29 135 -14 73 -35 157 -40 163 -6 5 -2 -145 9 -338 2 -30 6 -111 9 -180
4 -69 9 -165 11 -215 3 -49 7 -137 10 -195 8 -196 15 -335 20 -415 3 -44 8
-136 10 -205 3 -69 5 -125 6 -125 0 0 2 -21 3 -47 1 -26 -1 -44 -5 -40 -6 7
-47 85 -284 547 -54 105 -131 255 -173 335 -41 80 -135 264 -210 410 -148 290
-140 276 -147 268 -3 -3 1 -23 9 -44 8 -22 38 -113 66 -204 28 -91 54 -172 57
-180 4 -8 7 -17 8 -20 4 -16 97 -308 102 -320 3 -8 7 -19 9 -25 1 -5 9 -30 17
-55 21 -63 161 -494 162 -500 0 -3 12 -39 25 -80 13 -41 25 -77 25 -80 3 -17
48 -148 56 -162 5 -10 7 -18 4 -18 -6 0 -12 6 -130 136 -44 48 -91 99 -104
113 -13 14 -49 54 -80 89 -31 35 -72 80 -91 101 -19 21 -69 75 -110 121 -41
46 -86 95 -100 110 -14 15 -59 64 -100 111 -41 46 -84 93 -95 105 -24 24 -172
187 -198 218 -10 12 -55 61 -100 109 -45 49 -86 95 -90 103 -4 8 -12 14 -17
14 -5 0 15 -37 45 -82 31 -46 59 -90 62 -98 4 -8 11 -19 15 -25 11 -12 198
-298 198 -302 0 -4 119 -186 130 -200 5 -7 10 -15 10 -18 0 -3 5 -11 11 -18 5
-7 54 -82 109 -167 54 -85 102 -159 107 -165 5 -5 20 -28 33 -50 31 -52 143
-225 190 -295 51 -76 66 -105 48 -94 -7 4 -17 12 -23 16 -5 5 -104 69 -220
143 -249 159 -236 151 -400 257 -160 104 -504 326 -685 442 -74 47 -144 93
-155 101 -41 32 -32 13 13 -27 76 -69 144 -132 167 -153 12 -11 64 -58 116
-105 52 -47 110 -99 129 -117 19 -17 45 -40 57 -51 13 -10 66 -59 119 -108 53
-49 106 -97 118 -107 12 -10 42 -37 67 -60 25 -23 85 -78 134 -122 49 -44 103
-93 120 -110 18 -16 48 -43 67 -60 74 -63 198 -178 195 -181 -2 -2 -77 21
-168 50 -182 59 -371 120 -379 121 -7 1 -319 102 -355 115 -16 6 -37 13 -45
15 -8 2 -35 10 -60 18 -97 32 -548 176 -570 182 -3 1 -12 4 -20 8 -49 19 -110
35 -110 29 1 -4 51 -32 113 -63 119 -59 577 -293 762 -389 61 -31 241 -124
400 -205 160 -81 297 -154 305 -163 8 -8 10 -12 5 -9 -6 3 -76 8 -155 11 -80
4 -188 9 -240 12 -52 3 -135 7 -185 9 -85 4 -207 10 -425 20 -52 3 -142 7
-200 10 -58 3 -143 7 -190 10 -303 13 -367 17 -385 21 -11 2 -6 -2 10 -10 17
-8 46 -16 65 -20 19 -3 55 -10 80 -15 25 -6 88 -20 140 -31 52 -11 102 -22
111 -25 9 -2 33 -6 54 -9 20 -4 41 -8 45 -11 5 -3 21 -7 37 -9 23 -3 94 -18
193 -41 68 -15 169 -37 185 -39 11 -2 29 -6 40 -9 11 -3 36 -9 55 -12 19 -3
55 -11 80 -16 25 -6 56 -13 70 -15 14 -3 33 -7 42 -10 18 -5 53 -13 83 -19 37
-6 169 -34 240 -50 39 -9 81 -18 95 -21 65 -12 121 -27 117 -31 -3 -2 -17 -6
-33 -9 -16 -3 -37 -7 -46 -10 -18 -5 -45 -11 -93 -20 -16 -3 -66 -13 -110 -24
-83 -20 -315 -70 -350 -76 -22 -3 -102 -21 -270 -59 -60 -14 -123 -27 -140
-30 -42 -7 -74 -13 -93 -19 -9 -3 -28 -7 -42 -10 -34 -6 -352 -76 -365 -80
-16 -5 -89 -19 -110 -22 -11 -1 -21 -3 -22 -4 -5 -4 -22 -7 -43 -9 -11 0 -20
-5 -20 -9 0 -5 17 -8 38 -6 49 4 241 14 367 19 55 2 141 6 190 9 50 3 140 8
200 11 61 3 153 7 205 10 52 3 145 7 205 10 61 3 148 8 195 10 47 3 139 7 205
10 66 3 133 7 148 9 17 2 25 0 19 -6 -10 -10 -127 -71 -332 -175 -74 -37 -139
-71 -145 -75 -5 -4 -80 -43 -165 -87 -398 -203 -516 -264 -527 -273 -7 -6 -13
-7 -13 -3 0 5 -8 1 -17 -7 -10 -9 -29 -19 -43 -23 -14 -4 -27 -11 -30 -14 -3
-4 -50 -29 -105 -57 -55 -27 -101 -52 -103 -56 -2 -5 -10 -8 -17 -8 -7 0 -33
-11 -56 -25 -48 -27 -38 -33 17 -10 19 8 37 14 40 14 2 -1 17 4 32 9 15 6 88
29 162 52 74 23 144 45 155 50 21 9 152 51 170 54 6 1 35 11 65 21 30 11 57
20 60 20 3 0 79 25 170 54 91 30 166 53 168 52 1 -1 18 5 37 13 19 8 35 12 35
9 0 -3 6 -1 13 5 7 6 24 13 37 16 27 5 53 13 85 26 11 5 43 15 70 24 47 13
313 99 352 113 18 6 -74 -86 -167 -167 -29 -25 -64 -56 -79 -70 -88 -81 -156
-143 -225 -205 -43 -38 -93 -83 -110 -100 -37 -34 -189 -171 -220 -198 -11
-10 -43 -39 -71 -65 -28 -26 -89 -81 -135 -122 -45 -41 -100 -91 -121 -110
-20 -19 -53 -48 -71 -65 -96 -85 -116 -103 -122 -114 -4 -6 19 7 51 28 32 22
87 58 123 80 36 23 72 45 80 51 8 6 49 32 90 58 41 27 120 78 175 114 55 35
170 109 255 163 85 55 160 103 165 108 11 9 395 254 463 296 24 14 56 37 73
49 16 13 35 21 41 19 10 -4 10 -6 1 -6 -7 -1 -13 -5 -13 -11 0 -8 -43 -77
-215 -340 -23 -36 -63 -98 -89 -137 -25 -40 -67 -106 -93 -145 -27 -40 -52
-81 -58 -91 -34 -59 -331 -513 -337 -515 -4 -2 -8 -8 -8 -13 0 -5 -36 -64 -80
-130 -44 -67 -79 -124 -77 -125 2 -2 26 22 53 53 27 31 63 71 79 89 17 18 64
69 105 115 41 45 89 97 105 114 38 42 147 163 173 193 11 13 58 64 104 114 46
50 92 101 103 114 11 12 54 59 96 105 42 46 94 104 115 128 22 25 53 59 69 76
80 86 181 199 188 211 10 17 28 18 22 2 -2 -7 -20 -65 -40 -128 -21 -63 -38
-119 -40 -125 -1 -5 -5 -17 -8 -25 -7 -20 -150 -462 -153 -475 -2 -11 -67
-211 -121 -375 -19 -58 -36 -109 -37 -115 -8 -32 -39 -132 -44 -140 -4 -5 -7
-15 -8 -22 -2 -13 -22 -79 -31 -103 -3 -8 -7 -19 -9 -25 -1 -5 -14 -45 -28
-89 -25 -75 -36 -133 -14 -71 6 17 22 48 36 69 13 22 25 45 26 51 1 7 8 23 16
36 9 13 31 56 50 94 19 39 38 73 43 76 5 3 8 9 8 13 -1 3 26 60 59 126 34 66
61 122 60 126 -1 4 2 10 7 13 5 3 33 53 62 111 154 304 265 516 274 528 5 6 6
12 1 12 -5 0 -4 4 1 8 6 4 45 77 89 162 43 85 82 158 85 163 7 7 7 -17 -3
-218 -13 -239 -17 -325 -21 -405 -3 -47 -7 -139 -10 -205 -4 -66 -8 -151 -10
-190 -2 -38 -6 -131 -10 -205 -3 -74 -8 -171 -10 -215 -3 -44 -7 -131 -10
-193 -3 -63 -7 -117 -9 -121 -3 -4 0 -13 6 -21 8 -12 9 -12 4 2 -3 10 -2 18 2
18 5 0 17 44 27 98 10 53 23 120 30 147 7 28 16 64 19 80 2 17 7 39 10 50 4
18 71 329 82 380 2 11 7 34 10 50 4 17 8 39 10 50 1 11 3 20 4 20 1 0 3 7 5
15 1 8 10 49 19 90 9 41 19 86 22 100 3 14 7 33 10 42 3 10 7 30 10 45 9 54
12 68 24 118 6 28 14 59 16 70 4 19 6 31 19 88 3 12 7 34 10 49 3 16 12 58 21
95 21 90 22 95 24 118 3 34 39 -96 55 -195 3 -19 10 -51 15 -70 5 -19 12 -48
15 -65 3 -16 7 -34 9 -40 1 -5 6 -28 11 -50 4 -22 10 -49 12 -60 2 -11 6 -31
9 -45 3 -14 7 -33 10 -42 3 -10 7 -28 10 -40 2 -13 11 -54 19 -93 8 -38 22
-104 31 -145 9 -41 18 -82 19 -90 2 -8 13 -58 24 -110 11 -52 32 -147 46 -210
14 -63 28 -126 30 -140 6 -30 7 -36 35 -165 12 -55 24 -111 27 -125 9 -54 21
-40 17 21 -2 35 -6 114 -9 174 -2 61 -7 151 -10 202 -3 50 -7 140 -10 200 -2
59 -7 158 -10 218 -3 61 -8 146 -10 190 -3 73 -14 287 -20 410 -14 268 -16
329 -12 325 4 -5 39 -73 318 -615 64 -126 163 -318 218 -425 55 -107 145 -281
198 -387 54 -105 99 -191 100 -190 1 2 -7 29 -18 62 -11 33 -22 67 -24 75 -3
14 -80 256 -125 390 -10 30 -48 150 -85 265 -37 116 -74 230 -82 255 -8 25
-16 50 -17 55 -1 6 -24 78 -51 160 -27 83 -50 152 -50 155 -1 3 -4 12 -7 20
-4 8 -25 76 -49 150 -23 74 -44 140 -47 145 -5 12 55 -50 158 -164 41 -46 86
-95 100 -110 14 -15 61 -67 105 -116 44 -49 99 -109 122 -134 23 -25 51 -57
63 -71 12 -14 54 -60 93 -103 114 -124 138 -150 212 -233 39 -43 80 -89 92
-102 12 -13 50 -55 85 -94 35 -39 93 -103 131 -142 l67 -71 -125 195 c-69 107
-130 202 -135 210 -27 39 -352 545 -365 567 -10 17 -59 93 -147 226 -21 32
-38 62 -38 67 0 5 -3 10 -8 12 -10 4 -162 242 -162 254 0 5 4 4 8 -2 4 -5 36
-28 72 -49 36 -22 70 -44 76 -50 6 -5 27 -19 47 -30 20 -11 37 -23 37 -27 0
-5 4 -8 9 -8 10 0 261 -159 271 -171 3 -3 10 -8 16 -10 20 -8 659 -423 662
-431 2 -4 9 -8 16 -8 7 0 23 -9 36 -20 13 -11 29 -20 36 -20 7 0 14 -4 16 -8
3 -8 127 -92 135 -92 2 0 25 -14 51 -31 l47 -31 -45 41 c-52 49 -203 187 -236
216 -12 11 -55 49 -95 85 -39 36 -84 76 -99 90 -15 14 -59 53 -98 88 -39 35
-82 73 -95 85 -13 12 -63 58 -111 102 -48 44 -102 94 -120 110 -18 17 -65 59
-104 94 -40 35 -89 80 -110 100 -37 35 -184 168 -225 204 -11 9 -18 17 -15 17
5 0 92 -28 118 -37 8 -3 20 -7 27 -9 7 -1 68 -20 135 -42 196 -65 572 -186
583 -188 6 -1 44 -13 85 -27 41 -14 176 -57 300 -97 124 -39 245 -78 270 -87
25 -8 54 -17 65 -19 11 -2 29 -8 40 -13 28 -13 86 -31 99 -31 6 0 -11 12 -39
26 -122 62 -565 290 -720 369 -93 48 -252 130 -353 181 -101 52 -194 102 -208
110 -13 9 -24 13 -24 9 0 -3 -12 2 -27 12 -16 11 -72 41 -125 68 -54 27 -98
51 -98 55 0 3 15 5 33 3 17 -2 79 -5 137 -8 58 -2 150 -7 205 -10 55 -3 150
-8 210 -11 61 -3 148 -7 195 -9 47 -2 132 -7 190 -9 58 -3 150 -8 205 -11 55
-3 154 -8 220 -11 66 -2 161 -7 210 -10 50 -2 111 -6 137 -8 26 -1 45 1 42 6
-3 4 -14 8 -26 8 -11 0 -48 7 -82 16 -33 9 -70 18 -81 20 -11 2 -45 9 -75 16
-30 6 -62 12 -70 13 -8 2 -37 8 -65 15 -27 6 -61 14 -75 16 -14 2 -63 13 -110
24 -90 20 -133 29 -165 35 -17 3 -108 23 -180 40 -11 3 -42 9 -70 15 -64 13
-77 16 -210 45 -79 17 -250 54 -280 61 -11 2 -31 6 -45 9 -14 3 -34 7 -45 9
-11 2 -40 10 -65 17 -25 7 -55 13 -67 13 -12 1 -24 4 -28 8 -7 7 13 15 65 23
19 3 63 12 96 20 34 8 73 16 85 19 13 3 49 10 79 16 30 6 66 13 80 16 14 3 33
7 42 10 9 3 27 7 40 9 13 3 43 9 68 15 25 5 56 12 70 14 14 3 66 14 115 25 50
11 101 22 115 25 14 2 32 7 40 10 8 3 29 7 45 10 42 7 75 14 295 62 36 8 74
16 85 18 40 9 220 48 230 50 6 2 28 7 50 11 22 5 42 10 45 10 3 1 29 5 58 10
29 4 55 11 58 16 3 5 -1 7 -8 4 -7 -2 -71 -7 -143 -9 -183 -7 -327 -14 -442
-21 -90 -5 -203 -10 -423 -20 -47 -2 -134 -6 -195 -10 -126 -7 -237 -12 -415
-20 -69 -4 -140 -8 -158 -9 -55 -6 -82 -21 468 261 107 55 285 146 395 202
579 296 691 354 699 362 10 9 -28 -1 -74 -19 -14 -5 -28 -10 -33 -10 -12 -2
-419 -132 -462 -149 -22 -8 -41 -14 -43 -13 -2 1 -15 -3 -30 -8 -15 -6 -108
-36 -207 -68 -99 -31 -227 -72 -285 -91 -58 -19 -112 -36 -120 -38 -24 -6
-303 -95 -332 -107 -15 -5 -30 -10 -32 -9 -3 0 -24 -6 -47 -14 -23 -8 -43 -15
-46 -15 -6 0 140 135 227 210 14 12 43 38 65 59 22 20 92 84 155 141 63 57
120 109 126 114 36 35 186 170 206 185 13 11 46 41 73 67 28 27 86 81 129 119
43 39 91 81 106 95 135 124 206 187 221 198 39 27 17 30 -23 3 -133 -88 -280
-181 -288 -181 -6 0 -10 -3 -10 -7 0 -5 -27 -24 -60 -43 -33 -19 -60 -38 -60
-42 0 -5 -4 -8 -10 -8 -8 0 -136 -81 -330 -209 -30 -20 -63 -40 -72 -46 -39
-23 -203 -129 -208 -135 -3 -3 -27 -19 -55 -35 -27 -16 -54 -32 -60 -37 -5 -5
-64 -43 -130 -86 -66 -42 -122 -79 -125 -82 -11 -11 -52 -31 -56 -27 -3 3 1
11 9 18 7 8 16 21 19 29 4 8 49 80 102 160 52 80 109 168 126 195 17 28 52 83
78 123 91 140 497 768 569 882 74 115 74 115 26 64 -26 -28 -86 -93 -133 -145
-47 -51 -110 -121 -140 -154 -31 -33 -69 -75 -85 -94 -47 -52 -205 -226 -265
-291 -14 -15 -55 -60 -92 -101 -76 -85 -101 -112 -172 -190 -28 -30 -85 -93
-126 -139 -167 -186 -176 -194 -153 -130 4 8 7 20 8 26 2 6 14 44 28 85 14 41
50 155 82 254 31 99 59 187 62 195 3 8 7 20 9 25 1 6 14 46 29 90 15 44 28 85
29 90 1 6 24 78 51 160 27 83 49 152 50 155 1 8 26 83 32 100 3 8 7 20 9 25
11 41 54 175 62 195 8 20 60 184 89 280 2 8 -13 -19 -35 -60 -81 -156 -269
-523 -366 -715 -55 -110 -103 -202 -106 -205 -3 -3 -39 -70 -79 -150 -102
-201 -243 -474 -248 -480 -5 -5 4 209 22 530 3 52 8 142 10 200 5 106 11 236
21 410 2 52 7 145 9 205 6 136 13 264 20 378 3 48 4 87 2 87 -2 0 -9 -28 -17
-62z"/>
<path d="M7070 2811 c-41 -21 -200 -101 -353 -180 -153 -78 -363 -185 -468
-239 -105 -53 -270 -138 -367 -187 -97 -50 -325 -167 -507 -259 -181 -93 -420
-215 -530 -271 -213 -109 -517 -264 -890 -455 -126 -65 -347 -177 -490 -250
-241 -123 -347 -177 -950 -487 -121 -62 -230 -117 -242 -123 l-23 -9 32 -58
c17 -32 35 -62 39 -67 5 -6 9 -18 9 -28 0 -10 3 -18 8 -18 4 0 16 -19 27 -43
11 -23 32 -63 46 -90 l26 -48 154 79 c85 43 291 148 459 233 168 85 308 158
311 162 3 5 9 8 13 8 7 -1 68 29 466 231 151 77 412 210 580 295 168 86 440
224 605 308 165 84 424 215 575 291 151 77 277 141 280 144 3 3 130 68 284
144 153 77 328 166 390 198 61 32 120 61 130 64 11 4 24 10 30 15 6 5 76 42
156 82 405 205 475 241 478 243 2 1 -17 35 -43 77 -25 41 -45 80 -45 86 0 6
-3 11 -8 11 -4 0 -16 17 -27 38 -11 20 -33 60 -50 89 l-31 51 -74 -37z"/>
</g>
</svg>
