<?xml version="1.0" standalone="no"?>
<!DOCTYPE svg PUBLIC "-//W3C//DTD SVG 20010904//EN"
 "http://www.w3.org/TR/2001/REC-SVG-20010904/DTD/svg10.dtd">
<svg version="1.0" xmlns="http://www.w3.org/2000/svg"
 width="700.000000pt" height="700.000000pt" viewBox="0 0 700.000000 700.000000"
 preserveAspectRatio="xMidYMid meet">
<metadata>
Created by potrace 1.14, written by Peter Selinger 2001-2017
</metadata>
<g transform="translate(0.000000,700.000000) scale(0.100000,-0.100000)"
fill="#000000" stroke="none">
<path d="M0 3495 l0 -3245 976 0 c601 0 973 4 969 9 -3 5 -10 31 -16 58 -5 26
-14 66 -20 88 -5 22 -12 51 -15 65 -2 14 -7 33 -10 42 -3 9 -7 25 -9 35 -4 19
-23 102 -51 221 -8 37 -17 76 -18 87 -2 11 -10 49 -19 85 -8 36 -18 82 -21
104 -4 21 -8 42 -11 46 -3 5 -7 21 -9 37 -11 75 -27 155 -35 175 -5 13 -9 26
-9 31 -1 15 -14 95 -33 192 -27 145 -28 150 -49 270 -10 61 -22 126 -25 145
-8 42 -11 59 -19 125 -4 28 -9 61 -13 75 -7 31 -9 40 -18 120 -4 36 -8 67 -10
70 -2 3 -6 34 -10 70 -4 36 -9 74 -11 85 -2 11 -6 41 -9 66 -3 25 -7 65 -10
88 -3 22 -7 60 -10 84 -3 23 -7 60 -10 82 -9 69 -24 237 -30 330 -2 33 -4 60
-5 60 -5 0 -13 277 -13 475 0 259 5 410 13 410 3 0 5 12 5 28 2 121 86 489
116 508 5 3 9 11 9 19 0 25 73 139 123 191 130 138 345 172 505 82 107 -60
223 -182 305 -323 27 -46 110 -214 130 -265 11 -25 25 -58 32 -75 16 -39 59
-164 97 -285 29 -95 35 -114 44 -159 3 -14 7 -28 10 -33 3 -4 7 -18 9 -30 3
-13 17 -70 31 -127 14 -58 28 -115 30 -128 2 -13 6 -34 8 -48 3 -14 7 -33 10
-43 6 -19 13 -59 22 -112 3 -19 7 -41 10 -49 2 -8 7 -30 10 -50 2 -20 7 -47
10 -61 3 -14 8 -36 10 -50 12 -71 14 -88 19 -125 3 -22 8 -46 11 -54 2 -8 7
-35 10 -60 5 -46 11 -86 14 -86 0 0 3 -20 5 -45 5 -49 11 -98 19 -145 10 -62
19 -131 21 -170 2 -22 6 -60 10 -85 4 -25 8 -56 10 -70 8 -84 17 -168 20 -190
2 -14 6 -59 10 -100 3 -41 8 -91 10 -110 5 -55 17 -196 30 -355 3 -33 7 -98
10 -145 3 -47 7 -119 10 -160 5 -70 9 -138 20 -365 7 -139 17 -412 18 -487 l1
-68 763 0 763 0 1 48 c3 113 7 226 13 357 10 213 15 310 32 555 10 154 11 171
19 265 4 50 8 108 10 130 1 22 5 69 9 105 4 36 9 88 11 115 8 86 21 214 30
280 3 22 7 65 10 95 5 50 11 102 20 170 2 14 4 25 5 25 0 0 3 18 5 40 7 65 14
129 19 150 2 11 7 47 11 80 4 32 9 68 11 80 2 11 6 38 9 60 5 35 10 66 30 175
2 14 7 41 9 60 3 19 8 49 11 65 27 133 44 223 49 255 1 9 5 21 10 28 4 6 5 12
2 12 -2 0 0 15 5 33 5 17 12 48 15 67 3 19 8 38 10 41 2 3 5 19 8 35 3 16 15
65 26 109 12 44 23 89 25 100 12 51 122 399 134 420 3 6 6 12 7 15 0 3 5 16
11 30 6 14 21 50 33 80 12 30 26 59 31 64 5 6 9 15 9 22 0 16 97 187 141 250
58 82 141 174 158 174 5 0 11 4 13 8 2 4 19 19 38 33 130 95 331 102 466 17
52 -33 126 -109 150 -154 10 -19 22 -34 26 -34 5 0 8 -8 8 -18 0 -10 4 -22 9
-28 9 -9 49 -102 57 -134 2 -8 11 -40 20 -70 9 -30 17 -64 19 -75 2 -11 7 -31
10 -45 3 -14 8 -38 10 -55 2 -16 6 -41 9 -55 5 -30 14 -108 23 -215 10 -104 9
-579 -1 -720 -17 -254 -24 -334 -41 -485 -2 -19 -7 -60 -10 -90 -4 -30 -8 -66
-10 -80 -3 -14 -7 -50 -11 -80 -3 -30 -7 -66 -9 -80 -10 -77 -15 -118 -20
-140 -2 -14 -7 -45 -10 -70 -3 -25 -8 -52 -10 -60 -2 -8 -6 -35 -9 -60 -3 -25
-8 -56 -11 -70 -2 -13 -7 -42 -10 -65 -4 -22 -9 -56 -12 -75 -3 -19 -7 -42 -8
-50 -1 -8 -5 -26 -8 -40 -4 -14 -9 -41 -12 -60 -2 -19 -7 -46 -10 -60 -2 -13
-7 -42 -10 -65 -3 -22 -8 -47 -10 -55 -2 -8 -7 -28 -10 -45 -2 -16 -7 -41 -10
-55 -3 -14 -7 -37 -10 -52 -2 -15 -6 -35 -9 -45 -3 -10 -7 -35 -10 -55 -3 -21
-11 -59 -17 -85 -6 -27 -13 -59 -15 -73 -2 -14 -11 -56 -20 -95 -9 -38 -18
-79 -20 -90 -2 -11 -8 -42 -14 -70 -6 -27 -12 -59 -14 -70 -2 -11 -9 -40 -16
-65 -7 -25 -14 -54 -15 -65 -2 -11 -6 -30 -9 -43 -8 -29 -15 -61 -21 -92 -3
-14 -11 -49 -19 -77 -8 -29 -12 -53 -9 -53 3 0 0 -7 -7 -15 -7 -8 -10 -15 -7
-15 3 0 -6 -42 -19 -92 -13 -51 -24 -96 -24 -100 0 -5 220 -8 490 -8 l490 0 0
3245 0 3245 -1509 0 -1509 0 15 -57 c22 -84 83 -343 90 -378 2 -16 18 -84 33
-150 16 -66 31 -133 33 -150 3 -16 13 -64 22 -105 9 -41 18 -85 21 -97 6 -35
12 -64 18 -103 4 -19 9 -43 12 -53 3 -10 7 -30 9 -45 2 -15 9 -52 15 -82 6
-30 14 -68 16 -85 3 -16 7 -41 10 -55 3 -14 7 -34 9 -45 2 -11 9 -54 15 -95 7
-41 14 -84 17 -95 2 -11 6 -33 9 -50 2 -16 10 -61 16 -100 6 -38 12 -81 14
-95 3 -27 13 -100 19 -139 7 -40 17 -116 30 -231 2 -19 6 -60 9 -90 3 -30 9
-77 12 -105 4 -27 8 -72 10 -100 1 -27 6 -102 11 -165 12 -193 8 -745 -7 -745
-1 0 -3 -18 -4 -40 -3 -35 -11 -79 -32 -184 -8 -40 -55 -170 -78 -214 -34 -67
-75 -119 -125 -158 -66 -51 -126 -69 -224 -65 -105 3 -174 35 -254 116 -71 71
-91 98 -128 175 -17 33 -33 62 -36 65 -6 5 -87 238 -94 270 -2 8 -9 38 -15 65
-6 28 -14 61 -16 75 -3 14 -7 32 -9 40 -3 8 -7 33 -10 55 -4 22 -8 47 -10 55
-2 8 -7 38 -10 65 -4 28 -8 57 -10 65 -5 19 -16 112 -21 165 -3 42 -12 147
-19 225 -18 202 -25 882 -12 1200 15 357 34 667 52 860 3 30 7 84 10 120 6 65
9 93 19 205 3 33 7 76 10 95 3 19 8 63 10 98 l5 62 -1719 0 -1720 0 0 -3245z
m6160 2605 c141 -39 251 -110 312 -200 48 -71 62 -124 56 -208 -8 -103 -55
-176 -171 -269 -20 -16 -116 -64 -138 -69 -11 -2 -28 -6 -40 -9 -11 -2 -28 -6
-37 -9 -50 -16 -155 -21 -237 -13 -226 24 -416 163 -453 332 -10 47 -5 146 8
163 2 1 3 5 4 10 4 27 64 107 107 145 41 36 146 100 169 103 3 0 23 6 45 12
22 7 58 16 80 21 55 12 241 6 295 -9z"/>
</g>
</svg>
